<?xml version="1.0" encoding="iso-8859-1"?>
<!-- Generator: Adobe Illustrator 16.0.0, SVG Export Plug-In . SVG Version: 6.00 Build 0)  -->
<!DOCTYPE svg PUBLIC "-//W3C//DTD SVG 1.1//EN" "http://www.w3.org/Graphics/SVG/1.1/DTD/svg11.dtd">
<svg version="1.1" id="Capa_1" xmlns="http://www.w3.org/2000/svg" xmlns:xlink="http://www.w3.org/1999/xlink" x="0px" y="0px"
	 width="430.844px" height="430.844px" viewBox="0 0 430.844 430.844" style="enable-background:new 0 0 430.844 430.844;"
	 xml:space="preserve">
<g>
	<path fill="#e2e8f0" d="M426.275,147.754l-98.2-114.787c-3.613-4.225-8.895-6.656-14.452-6.656H117.22c-5.559,0-10.839,2.432-14.452,6.656
		L4.567,147.756c-6.132,7.167-6.084,17.746,0.113,24.858l196.402,225.395c3.612,4.145,8.841,6.523,14.34,6.523
		c5.498,0,10.728-2.379,14.339-6.523l196.403-225.395C432.361,165.502,432.409,154.923,426.275,147.754z M197.904,64.351h35.035
		l28.479,76.75h-91.992L197.904,64.351z M125.979,64.351h31.353l-28.479,76.75H60.32L125.979,64.351z M60.818,179.139h67.426
		l35.751,118.405L60.818,179.139z M215.422,336.263L167.98,179.139h94.885L215.422,336.263z M266.848,297.544l35.751-118.405h67.426
		L266.848,297.544z M301.991,141.101l-28.479-76.75h31.353l65.658,76.75H301.991z"/>
</g>
<g>
</g>
<g>
</g>
<g>
</g>
<g>
</g>
<g>
</g>
<g>
</g>
<g>
</g>
<g>
</g>
<g>
</g>
<g>
</g>
<g>
</g>
<g>
</g>
<g>
</g>
<g>
</g>
<g>
</g>
</svg>
