<?xml version="1.0" encoding="UTF-8" standalone="no"?>
<!-- Created with Inkscape (http://www.inkscape.org/) -->

<svg
   width="120mm"
   height="120mm"
   viewBox="0 0 120 120"
   version="1.1"
   id="svg5"
   inkscape:export-filename="logo.png"
   inkscape:export-xdpi="96"
   inkscape:export-ydpi="96"
   sodipodi:docname="logo.svg"
   inkscape:version="1.2 (dc2aedaf03, 2022-05-15)"
   xmlns:inkscape="http://www.inkscape.org/namespaces/inkscape"
   xmlns:sodipodi="http://sodipodi.sourceforge.net/DTD/sodipodi-0.dtd"
   xmlns:xlink="http://www.w3.org/1999/xlink"
   xmlns="http://www.w3.org/2000/svg"
   xmlns:svg="http://www.w3.org/2000/svg">
  <sodipodi:namedview
     id="namedview7"
     pagecolor="#ffffff"
     bordercolor="#999999"
     borderopacity="1"
     inkscape:showpageshadow="0"
     inkscape:pageopacity="0"
     inkscape:pagecheckerboard="0"
     inkscape:deskcolor="#d1d1d1"
     inkscape:document-units="mm"
     showgrid="false"
     showguides="true"
     inkscape:zoom="0.73570272"
     inkscape:cx="216.1199"
     inkscape:cy="212.04217"
     inkscape:window-width="1586"
     inkscape:window-height="865"
     inkscape:window-x="6"
     inkscape:window-y="27"
     inkscape:window-maximized="0"
     inkscape:current-layer="layer1">
    <sodipodi:guide
       position="54.816979,-159.32338"
       orientation="0,-1"
       id="guide5188"
       inkscape:locked="false" />
    <sodipodi:guide
       position="112.06448,-57.058961"
       orientation="0,-1"
       id="guide5559"
       inkscape:locked="false" />
  </sodipodi:namedview>
  <defs
     id="defs2">
    <linearGradient
       inkscape:collect="always"
       id="linearGradient3536">
      <stop
         style="stop-color:#0071a9;stop-opacity:1;"
         offset="0"
         id="stop3532" />
      <stop
         style="stop-color:#1ab2ff;stop-opacity:1;"
         offset="1"
         id="stop3534" />
    </linearGradient>
    <linearGradient
       inkscape:collect="always"
       xlink:href="#linearGradient3536"
       id="linearGradient3538"
       x1="42.930336"
       y1="223.00755"
       x2="112.06622"
       y2="223.00755"
       gradientUnits="userSpaceOnUse"
       gradientTransform="matrix(0.96200848,0,0,0.96200848,-33.011759,-156.53756)" />
    <linearGradient
       inkscape:collect="always"
       xlink:href="#linearGradient3536"
       id="linearGradient7342"
       gradientUnits="userSpaceOnUse"
       x1="42.930336"
       y1="223.00755"
       x2="112.06622"
       y2="223.00755"
       gradientTransform="matrix(-1,0,0,1,162.88036,-166.46029)" />
    <linearGradient
       inkscape:collect="always"
       xlink:href="#linearGradient3536"
       id="linearGradient328"
       gradientUnits="userSpaceOnUse"
       gradientTransform="matrix(-0.4046765,-0.87275269,0.87275269,-0.4046765,-103.65692,258.38643)"
       x1="42.930336"
       y1="223.00755"
       x2="112.06622"
       y2="223.00755" />
  </defs>
  <g
     inkscape:label="Layer 1"
     inkscape:groupmode="layer"
     id="layer1">
    <path
       style="fill:url(#linearGradient3538);fill-opacity:1;stroke:none;stroke-width:0.254531px;stroke-linecap:butt;stroke-linejoin:miter;stroke-opacity:1"
       d="M 74.796886,13.794206 19.626002,112.40775 c 0,0 -16.1085474,-15.649503 -9.9250094,-29.929071 C 15.884533,68.199116 54.978765,4.0552761 54.978765,4.0552761 c 0,0 15.612821,-3.70524019 19.818121,9.7389299 z"
       id="path73" />
    <path
       style="fill:none;stroke:none;stroke-width:0.264583px;stroke-linecap:butt;stroke-linejoin:miter;stroke-opacity:1"
       d="m 77.409933,10.788842 40.946037,94.643018 c 0,0 3.83834,7.65424 -5.66,7.46136 -9.49832,-0.19288 -18.171365,0 -18.171365,0 0,0 4.508672,-1.38864 3.975552,-6.43125 -0.533122,-5.04262 -0.414112,-3.41847 -0.414112,-3.41847 L 65.819563,31.837062 Z"
       id="path5355" />
    <path
       style="fill:url(#linearGradient7342);fill-opacity:1;stroke:none;stroke-width:0.264583px;stroke-linecap:butt;stroke-linejoin:miter;stroke-opacity:1"
       d="M 50.814131,10.598212 108.16383,113.10619 c 0,0 16.7447,-16.267528 10.31697,-31.111015 C 112.05306,67.151682 71.414923,0.47468136 71.414923,0.47468136 c 0,0 -16.229412,-3.85157006 -20.600792,10.12353064 z"
       id="path7340" />
    <path
       style="fill:none;stroke:none;stroke-width:0.264583px;stroke-linecap:butt;stroke-linejoin:miter;stroke-opacity:1"
       d="M 108.02884,112.60366 28.592809,66.741232 c 0,0 6.911573,-16.39536 24.116614,-6.46202 17.20504,9.93333 38.225482,22.069493 38.225482,22.069493 z"
       id="path8622" />
    <path
       style="fill:url(#linearGradient328);fill-opacity:1;stroke:none;stroke-width:0.254531px;stroke-linecap:butt;stroke-linejoin:miter;stroke-opacity:1"
       d="m 5.5207844,88.928935 112.6721756,8.56952 c 0,0 -7.42134,21.197075 -22.977193,21.594055 -15.555852,0.39699 -90.1936789,-8.08744 -90.1936789,-8.08744 0,0 -9.9291216,-12.605605 0.4986963,-22.076135 z"
       id="path326" />
  </g>
</svg>
